<svg width="33" height="35" viewBox="0 0 33 35" fill="none" xmlns="http://www.w3.org/2000/svg">
<path id="Vector" d="M4.125 5.69434H6.875L9.9 20.6423H24.75L27.5 9.96517H10.45" stroke="#233132" stroke-width="2" stroke-linecap="round" stroke-linejoin="round"/>
<path id="Vector_2" d="M13.75 28.4722C14.1147 28.4722 14.4644 28.3222 14.7223 28.0553C14.9801 27.7883 15.125 27.4262 15.125 27.0486C15.125 26.671 14.9801 26.3089 14.7223 26.042C14.4644 25.775 14.1147 25.625 13.75 25.625C13.3853 25.625 13.0356 25.775 12.7777 26.042C12.5199 26.3089 12.375 26.671 12.375 27.0486C12.375 27.4262 12.5199 27.7883 12.7777 28.0553C13.0356 28.3222 13.3853 28.4722 13.75 28.4722Z" fill="#233132"/>
<path id="Vector_3" d="M23.375 28.4722C23.7397 28.4722 24.0894 28.3222 24.3473 28.0553C24.6051 27.7883 24.75 27.4262 24.75 27.0486C24.75 26.671 24.6051 26.3089 24.3473 26.042C24.0894 25.775 23.7397 25.625 23.375 25.625C23.0103 25.625 22.6606 25.775 22.4027 26.042C22.1449 26.3089 22 26.671 22 27.0486C22 27.4262 22.1449 27.7883 22.4027 28.0553C22.6606 28.3222 23.0103 28.4722 23.375 28.4722Z" fill="#233132"/>
</svg>
