<svg width="33" height="35" viewBox="0 0 33 35" fill="none" xmlns="http://www.w3.org/2000/svg">
<path id="Vector" d="M15.125 25.6249C16.389 25.6249 17.6406 25.3671 18.8083 24.8663C19.9761 24.3655 21.0371 23.6315 21.9309 22.7061C22.8247 21.7808 23.5336 20.6822 24.0173 19.4732C24.501 18.2641 24.75 16.9683 24.75 15.6596C24.75 14.351 24.501 13.0551 24.0173 11.8461C23.5336 10.637 22.8247 9.53846 21.9309 8.6131C21.0371 7.68774 19.9761 6.9537 18.8083 6.4529C17.6406 5.9521 16.389 5.69434 15.125 5.69434C12.5723 5.69434 10.1241 6.74425 8.3191 8.6131C6.51406 10.482 5.5 13.0167 5.5 15.6596C5.5 18.3026 6.51406 20.8373 8.3191 22.7061C10.1241 24.575 12.5723 25.6249 15.125 25.6249Z" stroke="#233132" stroke-width="2" stroke-linecap="round" stroke-linejoin="round"/>
<path id="Vector_2" d="M27.5 28.4721L22.6875 23.4895" stroke="#233132" stroke-width="2" stroke-linecap="round" stroke-linejoin="round"/>
</svg>
