<svg width="33" height="35" viewBox="0 0 33 35" fill="none" xmlns="http://www.w3.org/2000/svg">
<path id="Vector" d="M4.125 9.96533H19.25V22.7778H4.125V9.96533Z" stroke="#233132" stroke-width="2" stroke-linecap="round" stroke-linejoin="round"/>
<path id="Vector_2" d="M19.25 14.2361H24.75L28.875 18.5069V22.7778H19.25" stroke="#233132" stroke-width="2" stroke-linecap="round" stroke-linejoin="round"/>
<path id="Vector_3" d="M9.625 27.0487C10.172 27.0487 10.6966 26.8237 11.0834 26.4232C11.4702 26.0227 11.6875 25.4796 11.6875 24.9132C11.6875 24.3469 11.4702 23.8038 11.0834 23.4033C10.6966 23.0028 10.172 22.7778 9.625 22.7778C9.07799 22.7778 8.55339 23.0028 8.16659 23.4033C7.7798 23.8038 7.5625 24.3469 7.5625 24.9132C7.5625 25.4796 7.7798 26.0227 8.16659 26.4232C8.55339 26.8237 9.07799 27.0487 9.625 27.0487Z" fill="#233132"/>
<path id="Vector_4" d="M23.375 27.0487C23.922 27.0487 24.4466 26.8237 24.8334 26.4232C25.2202 26.0227 25.4375 25.4796 25.4375 24.9132C25.4375 24.3469 25.2202 23.8038 24.8334 23.4033C24.4466 23.0028 23.922 22.7778 23.375 22.7778C22.828 22.7778 22.3034 23.0028 21.9166 23.4033C21.5298 23.8038 21.3125 24.3469 21.3125 24.9132C21.3125 25.4796 21.5298 26.0227 21.9166 26.4232C22.3034 26.8237 22.828 27.0487 23.375 27.0487Z" fill="#233132"/>
</svg>
